<svg xmlns="http://www.w3.org/2000/svg" xmlns:xlink="http://www.w3.org/1999/xlink" contentStyleType="text/css" height="692px" preserveAspectRatio="none" style="width:1095px;height:692px;background:#FFFFFF;" version="1.1" viewBox="0 0 1095 692" width="1095px" zoomAndPan="magnify"><defs/><g><!--cluster pki+oauth2+dns--><g id="cluster_pki+oauth2+dns"><path d="M37.8894,22.67 C47.8383,10.4841 56.3955,11.795 63.1236,25.776 C67.6571,13.8859 80.4177,10.1086 89.447,20.4535 C98.3284,8.2256 109.2565,8.3112 118.3274,20.2267 C126.0286,9.7441 136.1804,8.9387 141.9695,22.1357 C148.3382,9.5744 158.8336,7.252 167.0897,20.2831 C175.2479,6.8319 184.6988,7.9126 192.0944,21.0014 C199.798,8.9067 210.5012,7.8829 217.6513,21.5505 C231.2664,6 244.6932,11.9203 250.4289,29.3753 C251.5907,28.9956 252.1389,29.4275 251.9468,30.6544 C267.3126,37.1498 266.3401,51.6154 253.6049,59.7142 C264.5625,66.1548 268.6721,76.8113 255.6053,85.142 C268.2316,93.8491 266.6125,102.0962 254.959,110.1765 C268.8664,120.2005 267.6242,128.4718 253.7818,137.291 C268.1456,141.5854 269.7779,152.7669 258.5913,162.0288 C270.2174,170.8574 268.231,180.3374 256.5487,187.2807 C270.9371,193.4695 268.985,206.9357 258.3961,214.8013 C267.7627,222.7856 269.1769,234.2966 255.5252,239.618 C267.1738,245.1931 266.9483,256.498 256.7587,263.2147 C271.1697,272.4863 269.3333,281.709 257.2649,291.4551 C267.2682,299.8934 267.1525,307.3423 256.9524,315.5182 C269.5235,325.0635 264.2905,335.0453 252.8755,340.7086 C265.0072,347.6184 266.8531,358.799 255.0113,367.6121 C265.6804,384.0768 263.1936,394.0082 243.4289,399.3753 C246.2489,399.144 248.1873,400.8377 247.1148,403.8283 C236.7847,414.7236 226.4681,414.6788 218.1233,401.4432 C213.005,413.4612 202.469,414.1426 195.0442,403.8267 C187.7062,416.0923 176.0438,415.0877 168.8153,403.7054 C162.6059,417.5593 151.1707,417.3272 143.1942,405.4658 C134.9189,417.1723 122.0173,416.1303 117.3843,401.8486 C111.3844,416.0129 98.4163,416.0641 90.8697,403.376 C82.4817,414.7835 73.8176,417.679 65.1588,403.6497 C48.099,417.011 35.6767,410.9801 28.4289,392.3753 C30.7286,392.3478 31.9656,394.3295 30.9082,396.3802 C15.9936,388.5656 17.6658,376.8007 29.6856,367.8326 C14.8329,362.674 15.4544,350.5792 26.1574,341.9386 C12.9166,335.4372 13.0944,323.636 25.212,316.203 C12.3073,307.6133 14.2596,296.4789 27.8921,290.6753 C15.6156,283.8383 13.1894,274.593 23.5508,264.063 C12.3618,258.4253 8.8619,248.0802 21.2574,240.178 C7.5169,233.0326 6,220.9922 20.1393,212.7119 C9.2229,203.5873 10.8215,194.5998 23.2247,188.4395 C11.7331,180.2999 9.9836,171.4183 23.5728,163.6307 C8.991,155.2411 12.4522,141.5152 25.7948,135.3171 C10.5841,127.7512 12.6166,114.6681 26.0367,107.3498 C12.87,98.8956 15.823,90.3751 26.0978,81.9773 C15.6601,73.4833 17.6949,65.2489 28.7268,59.237 C13.4909,46.8504 18.8405,28.9757 35.4289,22.3753 C36.2531,21.3143 37.3447,21.397 37.8894,22.67 " fill="none" style="stroke:#181818;stroke-width:1.0;"/><text fill="#000000" font-family="sans-serif" font-size="14" font-weight="bold" lengthAdjust="spacing" textLength="107.3584" x="85.7497" y="42.4828">pki+oauth2+dns</text></g><!--cluster NAS--><g id="cluster_NAS"><rect fill="none" height="104" rx="2.5" ry="2.5" style="stroke:#181818;stroke-width:1.0;" width="292" x="325.4289" y="316.3753"/><text fill="#000000" font-family="sans-serif" font-size="14" font-weight="bold" lengthAdjust="spacing" textLength="29.5586" x="456.6496" y="333.4828">NAS</text></g><!--cluster DESKTOP--><g id="cluster_DESKTOP"><rect fill="none" height="92" rx="2.5" ry="2.5" style="stroke:#181818;stroke-width:1.0;" width="448" x="641.4289" y="322.3753"/><text fill="#000000" font-family="sans-serif" font-size="14" font-weight="bold" lengthAdjust="spacing" textLength="67.6758" x="831.5911" y="339.4828">DESKTOP</text></g><!--entity auth0--><g id="elem_auth0"><rect fill="#F1F1F1" height="24.6211" rx="2.5" ry="2.5" style="stroke:#181818;stroke-width:0.5;" width="55.0342" x="186.9289" y="209.3753"/><text fill="#000000" font-family="sans-serif" font-size="14" lengthAdjust="spacing" textLength="35.0342" x="196.9289" y="227.4828">auth0</text></g><!--entity duckdns--><g id="elem_duckdns"><rect fill="#F1F1F1" height="24.6211" rx="2.5" ry="2.5" style="stroke:#181818;stroke-width:0.5;" width="72.1445" x="36.4289" y="366.3753"/><text fill="#000000" font-family="sans-serif" font-size="14" lengthAdjust="spacing" textLength="52.1445" x="46.4289" y="384.4828">duckdns</text></g><!--entity letsentcrypt--><g id="elem_letsentcrypt"><rect fill="#F1F1F1" height="24.6211" rx="2.5" ry="2.5" style="stroke:#181818;stroke-width:0.5;" width="91.5859" x="143.4289" y="366.3753"/><text fill="#000000" font-family="sans-serif" font-size="14" lengthAdjust="spacing" textLength="71.5859" x="153.4289" y="384.4828">letsentcrypt</text></g><!--entity browser--><g id="elem_browser"><ellipse cx="182.3254" cy="59.8753" fill="#F1F1F1" rx="8" ry="8" style="stroke:#181818;stroke-width:0.5;"/><path d="M182.3254,67.8753 L182.3254,94.8753 M169.3254,75.8753 L195.3254,75.8753 M182.3254,94.8753 L169.3254,109.8753 M182.3254,94.8753 L195.3254,109.8753 " fill="none" style="stroke:#181818;stroke-width:0.5;"/><text fill="#000000" font-family="sans-serif" font-size="14" lengthAdjust="spacing" textLength="49.793" x="157.4289" y="126.4828">browser</text></g><!--entity openresty--><g id="elem_openresty"><ellipse cx="570.6702" cy="369.3753" fill="#F1F1F1" rx="12" ry="12" style="stroke:#181818;stroke-width:0.5;"/><polygon fill="#181818" points="566.6702,357.3753,572.6702,352.3753,570.6702,357.3753,572.6702,362.3753,566.6702,357.3753" style="stroke:#181818;stroke-width:1.0;"/><text fill="#000000" font-family="sans-serif" font-size="14" lengthAdjust="spacing" textLength="61.4824" x="539.9289" y="400.4828">openresty</text></g><!--entity vol--><g id="elem_vol"><rect fill="#F1F1F1" height="38.6211" rx="2.5" ry="2.5" style="stroke:#181818;stroke-width:0.5;" width="76.8066" x="341.9289" y="359.3753"/><text fill="#000000" font-family="sans-serif" font-size="14" lengthAdjust="spacing" textLength="56.8066" x="351.9289" y="384.4828">/volume1</text></g><!--entity gpu--><g id="elem_gpu"><rect fill="#F1F1F1" height="38.6211" rx="2.5" ry="2.5" style="stroke:#181818;stroke-width:0.5;" width="43.3584" x="1029.9289" y="359.3753"/><text fill="#000000" font-family="sans-serif" font-size="14" lengthAdjust="spacing" textLength="23.3584" x="1039.9289" y="384.4828">gpu</text></g><!--entity runtime--><g id="elem_runtime"><rect fill="#F1F1F1" height="38.6211" rx="2.5" ry="2.5" style="stroke:#181818;stroke-width:0.5;" width="141.584" x="852.4289" y="359.3753"/><text fill="#000000" font-family="sans-serif" font-size="14" lengthAdjust="spacing" textLength="121.584" x="862.4289" y="384.4828">ollama@docker/wsl</text></g><!--entity fe--><g id="elem_fe"><rect fill="#F1F1F1" height="38.6211" rx="2.5" ry="2.5" style="stroke:#181818;stroke-width:0.5;" width="159.6924" x="657.4289" y="359.3753"/><text fill="#000000" font-family="sans-serif" font-size="14" lengthAdjust="spacing" textLength="139.6924" x="667.4289" y="384.4828">chainlit+langchain (py)</text></g><!--entity admin--><g id="elem_admin"><ellipse cx="252.4944" cy="617.8753" fill="#F1F1F1" rx="8" ry="8" style="stroke:#181818;stroke-width:0.5;"/><path d="M252.4944,625.8753 L252.4944,652.8753 M239.4944,633.8753 L265.4944,633.8753 M252.4944,652.8753 L239.4944,667.8753 M252.4944,652.8753 L265.4944,667.8753 " fill="none" style="stroke:#181818;stroke-width:0.5;"/><text fill="#000000" font-family="sans-serif" font-size="14" lengthAdjust="spacing" textLength="38.1309" x="233.4289" y="684.4828">admin</text></g><!--link browser to openresty--><g id="link_browser_openresty"><path d="M207.7789,101.2853 C264.0489,123.1153 401.5489,181.6853 492.4289,264.3753 C520.8989,290.2853 541.5345,323.2287 555.0645,348.0187 " fill="none" id="browser-to-openresty" style="stroke:#181818;stroke-width:1.0;"/><polygon fill="#181818" points="557.9389,353.2853,557.1384,343.4691,555.5436,348.8965,550.1162,347.3017,557.9389,353.2853" style="stroke:#181818;stroke-width:1.0;"/></g><!--link browser to auth0--><g id="link_browser_auth0"><path d="M193.473,136.399 C200.173,163.419 205.7847,186.0118 210.1347,203.5518 " fill="none" id="browser-auth0" style="stroke:#181818;stroke-width:1.0;stroke-dasharray:7.0,7.0;"/><polygon fill="#181818" points="192.0289,130.5753,190.3126,140.2735,193.2323,135.4284,198.0774,138.3481,192.0289,130.5753" style="stroke:#181818;stroke-width:1.0;"/><polygon fill="#181818" points="211.5789,209.3753,213.2949,199.6771,210.3754,204.5224,205.5301,201.6028,211.5789,209.3753" style="stroke:#181818;stroke-width:1.0;"/><text fill="#000000" font-family="sans-serif" font-size="13" lengthAdjust="spacing" textLength="25.3018" x="205.4289" y="175.4037">auth</text></g><!--link browser to duckdns--><g id="link_browser_duckdns"><path d="M158.4489,130.4653 C145.2789,152.8753 129.4389,182.0053 118.4289,209.3753 C95.5589,266.1953 80.1389,338.2553 74.6489,366.1353 " fill="none" id="browser-duckdns" style="stroke:#181818;stroke-width:1.0;stroke-dasharray:7.0,7.0;"/><text fill="#000000" font-family="sans-serif" font-size="13" lengthAdjust="spacing" textLength="41.9072" x="119.4289" y="227.4037">resolve</text></g><!--link browser to letsentcrypt--><g id="link_browser_letsentcrypt"><path d="M177.0789,130.4153 C174.1789,153.3153 170.8889,182.9353 169.4289,209.3753 C166.1689,268.4953 180.3589,338.6553 186.6089,366.0753 " fill="none" id="browser-letsentcrypt" style="stroke:#181818;stroke-width:1.0;stroke-dasharray:7.0,7.0;"/></g><!--link openresty to auth0--><g id="link_openresty_auth0"><path d="M534.5069,357.8525 C507.6569,343.1425 472.6289,324.6753 436.4289,308.3753 C367.8889,277.5153 290.2613,249.2998 247.8313,234.4298 " fill="none" id="openresty-auth0" style="stroke:#181818;stroke-width:1.0;"/><polygon fill="#181818" points="539.7689,360.7353,533.7978,352.903,535.3839,358.333,529.954,359.9191,539.7689,360.7353" style="stroke:#181818;stroke-width:1.0;"/><polygon fill="#181818" points="242.1689,232.4453,249.3395,239.1969,246.8876,234.099,251.9854,231.6471,242.1689,232.4453" style="stroke:#181818;stroke-width:1.0;"/><text fill="#000000" font-family="sans-serif" font-size="13" lengthAdjust="spacing" textLength="70.8335" x="413.4289" y="279.4037">authenticate</text><text fill="#000000" font-family="sans-serif" font-size="13" lengthAdjust="spacing" textLength="46.9663" x="425.3625" y="296.6947">callback</text></g><!--link vol to openresty--><g id="link_vol_openresty"><path d="M419.3389,378.8753 C454.9489,378.8753 500.9389,378.8753 533.7089,378.8753 " fill="none" id="vol-to-openresty" style="stroke:#181818;stroke-width:1.0;"/><polygon fill="#181818" points="539.7089,378.8753,530.7089,374.8753,534.7089,378.8753,530.7089,382.8753,539.7089,378.8753" style="stroke:#181818;stroke-width:1.0;"/><text fill="#000000" font-family="sans-serif" font-size="13" lengthAdjust="spacing" textLength="84.1826" x="437.4289" y="371.9037">config+secrets</text></g><!--link openresty to fe--><g id="link_openresty_fe"><path d="M601.0889,390.3453 C619.8189,395.7753 632.55,398.4274 651.28,398.0774 " fill="none" id="openresty-to-fe" style="stroke:#181818;stroke-width:1.0;"/><polygon fill="#181818" points="657.2789,397.9653,648.2058,394.1342,652.2798,398.0588,648.3553,402.1328,657.2789,397.9653" style="stroke:#181818;stroke-width:1.0;"/></g><!--link fe to runtime--><g id="link_fe_runtime"><path d="M817.7189,378.8753 C829.2789,378.8753 834.8389,378.8753 846.3989,378.8753 " fill="none" id="fe-to-runtime" style="stroke:#181818;stroke-width:1.0;"/><polygon fill="#181818" points="852.3989,378.8753,843.3989,374.8753,847.3989,378.8753,843.3989,382.8753,852.3989,378.8753" style="stroke:#181818;stroke-width:1.0;"/></g><!--link runtime to gpu--><g id="link_runtime_gpu"><path d="M994.9289,378.8753 C1006.5489,378.8753 1012.1789,378.8753 1023.7989,378.8753 " fill="none" id="runtime-to-gpu" style="stroke:#181818;stroke-width:1.0;"/><polygon fill="#181818" points="1029.7989,378.8753,1020.7989,374.8753,1024.7989,378.8753,1020.7989,382.8753,1029.7989,378.8753" style="stroke:#181818;stroke-width:1.0;"/></g><!--link auth0 to admin--><g id="link_auth0_admin"><path d="M224.4089,234.4153 C244.6089,259.0153 288.4289,319.1353 288.4289,377.8753 C288.4289,377.8753 288.4289,377.8753 288.4289,548.3753 C288.4289,570.9753 282.6377,589.3796 273.9977,608.0596 " fill="none" id="auth0-to-admin" style="stroke:#181818;stroke-width:1.0;stroke-dasharray:7.0,7.0;"/><polygon fill="#181818" points="271.4789,613.5053,278.8876,607.016,273.5779,608.9673,271.6267,603.6576,271.4789,613.5053" style="stroke:#181818;stroke-width:1.0;"/></g><!--link letsentcrypt to admin--><g id="link_letsentcrypt_admin"><path d="M192.1389,391.3953 C200.8989,428.6653 227.3861,541.3245 241.9661,603.3545 " fill="none" id="letsentcrypt-to-admin" style="stroke:#181818;stroke-width:1.0;stroke-dasharray:7.0,7.0;"/><polygon fill="#181818" points="243.3389,609.1953,245.1735,599.5189,242.1949,604.328,237.3858,601.3494,243.3389,609.1953" style="stroke:#181818;stroke-width:1.0;"/></g><!--link duckdns to admin--><g id="link_duckdns_admin"><path d="M80.1589,391.3953 C106.6789,430.8653 191.0537,556.4944 230.0737,614.5944 " fill="none" id="duckdns-to-admin" style="stroke:#181818;stroke-width:1.0;stroke-dasharray:7.0,7.0;"/><polygon fill="#181818" points="233.4189,619.5753,231.7218,609.8738,230.6313,615.4246,225.0805,614.3341,233.4189,619.5753" style="stroke:#181818;stroke-width:1.0;"/></g><!--reverse link vol to admin--><g id="link_vol_admin"><path d="M375.7755,404.4375 C368.4055,441.0675 350.0589,518.2253 314.4289,579.3753 C302.9589,599.0553 285.1389,617.9753 271.5389,630.9253 " fill="none" id="vol-backto-admin" style="stroke:#181818;stroke-width:1.0;"/><polygon fill="#181818" points="376.9589,398.5553,371.2623,406.5895,375.9727,403.4571,379.1051,408.1675,376.9589,398.5553" style="stroke:#181818;stroke-width:1.0;"/><text fill="#000000" font-family="sans-serif" font-size="13" lengthAdjust="spacing" textLength="84.1826" x="350.4289" y="513.4037">config+secrets</text></g><!--SRC=[PL7BJiCm4BpxArOvWIAtmB5222Gu8G5IEN9nxMrhnR4ZFrfLY7zdxIOaARciTpmxdfr8uvA2gcjqxKIA-xjQsL31DmFwfF0ACdepjYh9XYWZO306j57wKnTPWOMCpiF6ksD0ptuOyoYZi3k3yFQq7hITZTuPS1rQZo6U2Zeog-N1cTJYRGKY09tdGiylwzVFzuzUR3AswrAPe7fvvOmHhNXKJZRebyTW2j4d6tMBbsIv5zeQ7Mj3G6dWgZjTbv4jPZFzWi2vuW-JFGRydYyUpkcjIXa75do8SKLF1cSEEBkSH_gdJ8gSpoI9fAM8-6MbC6OZPCCOHGLJFwiSzLRlwe3Ia_1Ka7YqonRpOSYXhndA6RBptnIgrPQQ_7Rsc5S-OrEpyvj-npd8IW6U226h_ztz0W00]--></g></svg>